<svg preserveAspectRatio="none" overflow="visible" style="display: block;" width="166.355" height="21.7538" viewBox="0 0 166.355 21.7538" fill="none" xmlns="http://www.w3.org/2000/svg">
<g id="Group 40">
<path id="Vector" d="M8.4202 1.87265C9.02693 -0.184062 11.9427 -0.183455 12.5501 1.87265L12.8157 2.77305V2.77402C12.8855 3.01066 13.1735 3.1041 13.3704 2.95273L14.1155 2.38047C15.8149 1.07522 18.1755 2.78421 17.4554 4.80527L17.1409 5.69004C17.0586 5.92157 17.2344 6.16637 17.4837 6.15976L18.4231 6.1334C20.568 6.07427 21.4709 8.84341 19.6995 10.0562L18.9241 10.5875C18.7196 10.7274 18.7196 11.0277 18.9241 11.1676L19.6995 11.6978C21.4708 12.91 20.5677 15.6798 18.4231 15.6207L17.4837 15.5943H17.4827C17.2346 15.5876 17.0582 15.8312 17.1409 16.0641L17.4554 16.9488C18.1754 18.9705 15.8142 20.6796 14.1145 19.3727V19.3717L13.3704 18.8004C13.1734 18.649 12.8853 18.7433 12.8157 18.9801L12.5501 19.8814C11.9432 21.9378 9.02773 21.9372 8.4202 19.8814L8.15457 18.9811L8.11844 18.898C8.01364 18.7234 7.77272 18.6687 7.60086 18.8004H7.59989L6.85575 19.3727C5.1563 20.6785 2.79472 18.97 3.51493 16.9488L3.82938 16.0641C3.90168 15.861 3.7765 15.6488 3.57743 15.6031L3.48758 15.5943L2.54813 15.6207C0.403516 15.6798 -0.499607 12.91 1.27176 11.6978L2.04715 11.1676C2.25169 11.0277 2.25169 10.7274 2.04715 10.5875L1.27176 10.0562C-0.499792 8.84412 0.40346 6.07427 2.54813 6.1334L3.48758 6.15976H3.48856C3.73674 6.16645 3.91329 5.92247 3.83036 5.69004L3.51493 4.80527C2.79487 2.78358 5.15603 1.07352 6.85575 2.38047L7.59989 2.95273H7.60086C7.79743 3.10375 8.08424 3.01085 8.15457 2.77305L8.4202 1.87265Z" fill="white" stroke="black" stroke-width="0.66074"/>
<path id="Vector_2" d="M37.497 1.87265C38.1037 -0.184062 41.0194 -0.183455 41.6268 1.87265L41.8925 2.77305V2.77402C41.9622 3.01066 42.2503 3.1041 42.4472 2.95273L43.1923 2.38047C44.8917 1.07522 47.2523 2.78421 46.5321 4.80527L46.2177 5.69004C46.1354 5.92157 46.3111 6.16637 46.5604 6.15976L47.4999 6.1334C49.6448 6.07427 50.5476 8.84341 48.7763 10.0562L48.0009 10.5875C47.7963 10.7274 47.7963 11.0277 48.0009 11.1676L48.7763 11.6978C50.5476 12.91 49.6445 15.6798 47.4999 15.6207L46.5604 15.5943H46.5595C46.3114 15.5876 46.135 15.8312 46.2177 16.0641L46.5321 16.9488C47.2522 18.9705 44.891 20.6796 43.1913 19.3727V19.3717L42.4472 18.8004C42.2502 18.649 41.9621 18.7433 41.8925 18.9801L41.6268 19.8814C41.0199 21.9378 38.1045 21.9372 37.497 19.8814L37.2313 18.9811L37.1952 18.898C37.0904 18.7234 36.8495 18.6687 36.6776 18.8004H36.6767L35.9325 19.3727C34.2331 20.6785 31.8715 18.97 32.5917 16.9488L32.9061 16.0641C32.9784 15.861 32.8533 15.6488 32.6542 15.6031L32.5643 15.5943L31.6249 15.6207C29.4803 15.6798 28.5772 12.91 30.3485 11.6978L31.1239 11.1676C31.3285 11.0277 31.3285 10.7274 31.1239 10.5875L30.3485 10.0562C28.577 8.84412 29.4802 6.07427 31.6249 6.1334L32.5643 6.15976H32.5653C32.8135 6.16645 32.9901 5.92247 32.9071 5.69004L32.5917 4.80527C31.8716 2.78358 34.2328 1.07352 35.9325 2.38047L36.6767 2.95273H36.6776C36.8742 3.10375 37.161 3.01085 37.2313 2.77305L37.497 1.87265Z" fill="white" stroke="black" stroke-width="0.66074"/>
<path id="Vector_3" d="M66.5737 1.87265C67.1805 -0.184062 70.0962 -0.183455 70.7036 1.87265L70.9692 2.77305V2.77402C71.039 3.01066 71.327 3.1041 71.5239 2.95273L72.269 2.38047C73.9685 1.07522 76.329 2.78421 75.6089 4.80527L75.2944 5.69004C75.2121 5.92157 75.3879 6.16637 75.6372 6.15976L76.5767 6.1334C78.7215 6.07427 79.6244 8.84341 77.853 10.0562L77.0776 10.5875C76.8731 10.7274 76.8731 11.0277 77.0776 11.1676L77.853 11.6978C79.6244 12.91 78.7213 15.6798 76.5767 15.6207L75.6372 15.5943H75.6362C75.3881 15.5876 75.2117 15.8312 75.2944 16.0641L75.6089 16.9488C76.3289 18.9705 73.9678 20.6796 72.2681 19.3727V19.3717L71.5239 18.8004C71.3269 18.649 71.0389 18.7433 70.9692 18.9801L70.7036 19.8814C70.0967 21.9378 67.1813 21.9372 66.5737 19.8814L66.3081 18.9811L66.272 18.898C66.1672 18.7234 65.9262 18.6687 65.7544 18.8004H65.7534L65.0093 19.3727C63.3098 20.6785 60.9482 18.97 61.6685 16.9488L61.9829 16.0641C62.0552 15.861 61.93 15.6488 61.731 15.6031L61.6411 15.5943L60.7017 15.6207C58.557 15.6798 57.6539 12.91 59.4253 11.6978L60.2007 11.1676C60.4052 11.0277 60.4052 10.7274 60.2007 10.5875L59.4253 10.0562C57.6537 8.84412 58.557 6.07427 60.7017 6.1334L61.6411 6.15976H61.6421C61.8903 6.16645 62.0668 5.92247 61.9839 5.69004L61.6685 4.80527C60.9484 2.78358 63.3096 1.07352 65.0093 2.38047L65.7534 2.95273H65.7544C65.951 3.10375 66.2378 3.01085 66.3081 2.77305L66.5737 1.87265Z" fill="white" stroke="black" stroke-width="0.66074"/>
<path id="Vector_4" d="M95.6505 1.87265C96.2572 -0.184062 99.173 -0.183455 99.7804 1.87265L100.046 2.77305V2.77402C100.116 3.01066 100.404 3.1041 100.601 2.95273L101.346 2.38047C103.045 1.07522 105.406 2.78421 104.686 4.80527L104.371 5.69004C104.289 5.92157 104.465 6.16637 104.714 6.15976L105.653 6.1334C107.798 6.07427 108.701 8.84341 106.93 10.0562L106.154 10.5875C105.95 10.7274 105.95 11.0277 106.154 11.1676L106.93 11.6978C108.701 12.91 107.798 15.6798 105.653 15.6207L104.714 15.5943H104.713C104.465 15.5876 104.289 15.8312 104.371 16.0641L104.686 16.9488C105.406 18.9705 103.045 20.6796 101.345 19.3727V19.3717L100.601 18.8004C100.404 18.649 100.116 18.7433 100.046 18.9801L99.7804 19.8814C99.1735 21.9378 96.258 21.9372 95.6505 19.8814L95.3849 18.9811L95.3487 18.898C95.2439 18.7234 95.003 18.6687 94.8312 18.8004H94.8302L94.086 19.3727C92.3866 20.6785 90.025 18.97 90.7452 16.9488L91.0597 16.0641C91.132 15.861 91.0068 15.6488 90.8077 15.6031L90.7179 15.5943L89.7784 15.6207C87.6338 15.6798 86.7307 12.91 88.5021 11.6978L89.2774 11.1676C89.482 11.0277 89.482 10.7274 89.2774 10.5875L88.5021 10.0562C86.7305 8.84412 87.6338 6.07427 89.7784 6.1334L90.7179 6.15976H90.7189C90.967 6.16645 91.1436 5.92247 91.0606 5.69004L90.7452 4.80527C90.0252 2.78358 92.3863 1.07352 94.086 2.38047L94.8302 2.95273H94.8312C95.0277 3.10375 95.3145 3.01085 95.3849 2.77305L95.6505 1.87265Z" fill="white" stroke="black" stroke-width="0.66074"/>
<path id="Vector_5" d="M124.727 1.87265C125.334 -0.184062 128.25 -0.183455 128.857 1.87265L129.123 2.77305V2.77402C129.193 3.01066 129.481 3.1041 129.677 2.95273L130.423 2.38047C132.122 1.07522 134.483 2.78421 133.762 4.80527L133.448 5.69004C133.366 5.92157 133.541 6.16637 133.791 6.15976L134.73 6.1334C136.875 6.07427 137.778 8.84341 136.007 10.0562L135.231 10.5875C135.027 10.7274 135.027 11.0277 135.231 11.1676L136.007 11.6978C137.778 12.91 136.875 15.6798 134.73 15.6207L133.791 15.5943H133.79C133.542 15.5876 133.365 15.8312 133.448 16.0641L133.762 16.9488C134.482 18.9705 132.121 20.6796 130.422 19.3727V19.3717L129.677 18.8004C129.48 18.649 129.192 18.7433 129.123 18.9801L128.857 19.8814C128.25 21.9378 125.335 21.9372 124.727 19.8814L124.462 18.9811L124.425 18.898C124.321 18.7234 124.08 18.6687 123.908 18.8004H123.907L123.163 19.3727C121.463 20.6785 119.102 18.97 119.822 16.9488L120.136 16.0641C120.209 15.861 120.084 15.6488 119.884 15.6031L119.795 15.5943L118.855 15.6207C116.711 15.6798 115.807 12.91 117.579 11.6978L118.354 11.1676C118.559 11.0277 118.559 10.7274 118.354 10.5875L117.579 10.0562C115.807 8.84412 116.711 6.07427 118.855 6.1334L119.795 6.15976H119.796C120.044 6.16645 120.22 5.92247 120.137 5.69004L119.822 4.80527C119.102 2.78358 121.463 1.07352 123.163 2.38047L123.907 2.95273H123.908C124.104 3.10375 124.391 3.01085 124.462 2.77305L124.727 1.87265Z" fill="white" stroke="black" stroke-width="0.66074"/>
<path id="Vector_6" d="M153.804 1.87265C154.411 -0.184062 157.326 -0.183455 157.934 1.87265L158.2 2.77305V2.77402C158.269 3.01066 158.557 3.1041 158.754 2.95273L159.499 2.38047C161.199 1.07522 163.559 2.78421 162.839 4.80527L162.525 5.69004C162.442 5.92157 162.618 6.16637 162.867 6.15976L163.807 6.1334C165.952 6.07427 166.855 8.84341 165.083 10.0562L164.308 10.5875C164.103 10.7274 164.103 11.0277 164.308 11.1676L165.083 11.6978C166.855 12.91 165.952 15.6798 163.807 15.6207L162.867 15.5943H162.867C162.618 15.5876 162.442 15.8312 162.525 16.0641L162.839 16.9488C163.559 18.9705 161.198 20.6796 159.498 19.3727V19.3717L158.754 18.8004C158.557 18.649 158.269 18.7433 158.2 18.9801L157.934 19.8814C157.327 21.9378 154.412 21.9372 153.804 19.8814L153.538 18.9811L153.502 18.898C153.397 18.7234 153.157 18.6687 152.985 18.8004H152.984L152.24 19.3727C150.54 20.6785 148.179 18.97 148.899 16.9488L149.213 16.0641C149.285 15.861 149.16 15.6488 148.961 15.6031L148.871 15.5943L147.932 15.6207C145.787 15.6798 144.884 12.91 146.656 11.6978L147.431 11.1676C147.636 11.0277 147.636 10.7274 147.431 10.5875L146.656 10.0562C144.884 8.84412 145.787 6.07427 147.932 6.1334L148.871 6.15976H148.872C149.121 6.16645 149.297 5.92247 149.214 5.69004L148.899 4.80527C148.179 2.78358 150.54 1.07352 152.24 2.38047L152.984 2.95273H152.985C153.181 3.10375 153.468 3.01085 153.538 2.77305L153.804 1.87265Z" fill="white" stroke="black" stroke-width="0.66074"/>
</g>
</svg>
